<svg xmlns="http://www.w3.org/2000/svg" xmlns:svg="http://www.w3.org/2000/svg" id="svg2860" width="16" height="16" version="1.1"><metadata id="metadata2865"/><g id="layer1"><path style="fill:none;stroke:none" id="path2885" d="m 13.109406,5.255693 a 5.203218,3.8066833 0 1 1 -10.406436,0 5.203218,3.8066833 0 1 1 10.406436,0 z"/><path style="fill:none;stroke:none" id="path2887" d="m 13.830198,9.9633665 a 0.36039606,1.0361387 0 1 1 -0.720792,0 0.36039606,1.0361387 0 1 1 0.720792,0 z"/><path style="fill:none;stroke:none" id="path2889" d="m 15.587129,5.9990096 a 7.6809411,5.5861387 0 1 1 -15.36188209,0 7.6809411,5.5861387 0 1 1 15.36188209,0 z"/><path style="fill:none;stroke:none" id="path2891" d="m 6.6673268,6.8549504 a 0.04504951,0.99108911 0 1 1 -0.090099,0 0.04504951,0.99108911 0 1 1 0.090099,0 z"/><path style="fill:#2c5aa0;stroke:none" id="path2893" d="m 13.559901,5.9089108 a 5.5861387,5.4960399 0 1 1 -11.1722772,0 5.5861387,5.4960399 0 1 1 11.1722772,0 z" transform="matrix(1.2531017,0,0,1.2736443,-2.0280742,0.34791246)"/><text style="font-size:12px;font-style:normal;font-variant:normal;font-weight:400;font-stretch:normal;text-align:start;line-height:100%;writing-mode:lr-tb;text-anchor:start;fill:#fff;fill-opacity:1;stroke:none;font-family:Arial Black;-inkscape-font-specification:'Arial Black,'" id="text2922" x="3.604" y="12.036" xml:space="preserve"><tspan id="tspan2924" x="3.604" y="12.036" style="font-size:12px;font-style:normal;font-variant:normal;font-weight:400;font-stretch:normal;text-align:start;line-height:100%;writing-mode:lr-tb;text-anchor:start;fill:#fff;font-family:Arial Black;-inkscape-font-specification:'Arial Black,'">D</tspan></text></g></svg>